<svg version="1.1" xmlns="http://www.w3.org/2000/svg" style="display: block;" viewBox="0 0 2048 2048" width="941" height="941" preserveAspectRatio="none">
<path transform="translate(0,0)" fill="rgb(0,235,146)" d="M 922.104 384.411 C 932.572 382.874 973.759 383.85 986.745 383.832 L 1136.26 383.82 L 1514.43 383.803 C 1577.73 383.803 1643.69 384.827 1706.79 383.692 C 1697.57 402.627 1674.89 438.095 1663.55 456.801 L 1633.01 506.87 C 1626.28 517.976 1619.69 529.228 1612.77 540.294 C 1586.59 582.183 1541.57 617.338 1493.07 628.184 C 1464.48 634.577 1430.19 632.724 1400.88 632.7 L 1300.82 632.631 L 921.401 632.721 C 914.392 662.423 905.691 693.257 897.749 722.851 L 850.296 896.328 L 733.112 1327.25 C 750.82 1328.71 777.67 1327.86 796.4 1327.84 L 911.695 1327.73 L 1272.75 1327.71 L 1491.15 1327.92 C 1475.96 1356.01 1453.65 1390.72 1436.55 1418.22 C 1413.28 1455.65 1392.02 1498.73 1361.3 1529.28 C 1336.06 1554.38 1299.4 1576.43 1264.04 1582.24 C 1234.48 1587.09 1194.63 1585.31 1163.71 1585.28 L 1010.43 1585.28 L 419.44 1585.33 C 444.643 1493.7 467.714 1399.32 491.737 1307.15 L 597.69 901.559 L 653.683 687.034 L 673.99 609.211 C 678.799 590.537 684.06 567.838 690.416 549.885 C 699.31 524.792 712.507 501.44 729.415 480.877 C 779.424 420.82 845.485 391.519 922.104 384.411 z"/>
<path transform="translate(0,0)" fill="rgb(0,235,146)" d="M 956.936 852.28 C 974.637 853.551 1002.68 852.788 1021.04 852.792 L 1140.99 852.79 L 1514.54 852.794 C 1504.93 871.364 1481.79 908.028 1470.18 926.151 C 1447.77 961.157 1421.52 1012.31 1393.07 1040.36 C 1392.17 1041.3 1391.26 1042.22 1390.34 1043.14 C 1368.37 1065.1 1335.75 1082.42 1305.5 1089.11 C 1283.14 1094.06 1258.52 1092.95 1235.51 1092.95 L 1161.56 1092.94 L 889.945 1092.81 C 899.943 1048.67 915.931 995.056 928.075 950.857 L 944.468 890.755 C 946.668 882.681 952.187 858.074 956.936 852.28 z"/>
</svg>